<?xml version="1.0" encoding="utf-8"?>
<!-- Generator: Adobe Illustrator 25.4.1, SVG Export Plug-In . SVG Version: 6.00 Build 0)  -->
<svg version="1.1" id="Layer_1" xmlns="http://www.w3.org/2000/svg" xmlns:xlink="http://www.w3.org/1999/xlink" x="0px" y="0px"
	 viewBox="0 0 714 714" style="enable-background:new 0 0 714 714;" xml:space="preserve">
<g>
	<path style="fill:#FFFFFF;" d="M357.2858276,535.1987305c-0.7269287,0-1.4554443-0.0140991-2.1855164-0.0422363
		c-17.719574-0.6835327-34.5752563-9.7769165-47.4637146-25.6047974
		c-8.3053894-10.1997986-14.8337402-22.8699341-19.2384033-37.2107239
		c-10.5558472,4.6949768-22.2009277,8.4208069-34.382782,10.9369202
		c-23.8230286,4.9195557-47.5232086,4.7833862-66.7381287-0.3845825
		c-32.2966614-8.6876526-40.7859344-27.7406006-42.972229-38.3249817
		c-2.1862793-10.5840149-1.9398041-31.441803,24.2721863-52.2138672
		c6.7990875-5.3874817,14.7586212-10.2342529,23.549942-14.3963318
		c-8.5080566-6.7873535-15.8580322-14.1647034-21.6594391-21.8272705
		c-20.187561-26.6638794-15.2132416-46.9210815-10.4509888-56.6228333
		c4.7630463-9.7021484,17.7453918-26.0288696,51.1884003-26.3677063c0.3349152-0.0035095,0.6713867-0.0050964,1.0086365-0.0050964
		c19.6617279,0,42.2390289,5.776001,63.7067413,16.3142395c5.3796692,2.6405334,10.5308228,5.4923096,15.4135742,8.5178223
		c0.444458-2.1851196,1.0360107-4.3725586,1.7793884-6.558075c4.4930725-13.2010498,11.8383484-30.6729736,26.2401428-43.2124481
		c-0.6369324-2.4789429-1.3177185-4.692215-2.0031738-6.6531525c-7.3366699-0.9202118-14.051239-4.3580933-19.1351013-9.8496399
		c-5.715332-6.1734924-8.6841125-14.2030487-8.359375-22.6097717c0.6541443-16.9417725,14.6451416-30.2817383,31.4562378-30.2817383
		c0.4076843,0,0.816925,0.0078278,1.2285156,0.0238647c15.0880432,0.5821838,27.3176575,11.7397614,29.8146057,26.0480499
		c3.698822,5.7329407,8.0213318,14.10289,11.5331726,25.6020355c4.3835144-11.1853638,9.3335876-19.1922302,13.4526367-24.6141357
		c1.4742126-5.8417053,4.6065369-11.1450653,9.1371765-15.3384399c6.1723022-5.7153473,14.1967773-8.6853027,22.609375-8.3597717
		c8.4055481,0.3239441,16.1827698,3.902298,21.8981018,10.0761719c5.715332,6.1734772,8.6841125,14.2030487,8.359375,22.609375
		c-0.6338196,16.4280701-13.8078918,29.4687195-29.9342957,30.2445679c-0.4311523,0.9851532-0.865448,2.0360413-1.2966003,3.1546173
		c13.99646,11.5688019,23.8511963,28.9644012,27.8677368,49.8519135c0.2488403,1.2958069,0.4507141,2.5865479,0.6064453,3.8733521
		c4.2129517-2.0884705,8.5761108-4.0368958,13.0645142-5.8252869c22.5976257-9.0053406,45.9589844-13.0109253,65.7795715-11.2769165
		c33.3178101,2.9136353,45.0043335,20.1914978,49.005249,30.2316589
		c4.0009155,10.0393982,7.4008179,30.6197815-14.7805176,55.6498108
		c-6.3742065,7.1930542-14.2695923,13.9823608-23.2752686,20.0944214
		c8.4446411,4.8264465,16.0074463,10.2718201,22.37146,16.1671143
		c24.5335693,22.7283325,23.173584,43.5430603,20.1789551,53.9275208
		c-2.9945679,10.3848877-12.9267578,28.7281189-45.7962036,34.9023743
		c-19.5545349,3.6737976-43.1968079,1.9840088-66.5699158-4.7563782
		c-10.8171997-3.1194153-21.1961975-7.2345581-30.6636047-12.1044006
		C411.8561707,513.4669189,385.9212036,535.1983643,357.2858276,535.1987305z M323.2144775,446.4525757l0.4272461,1.2156067
		l0.2816772,1.5258484c4.8209534,26.0672302,18.5819092,45.3830872,32.7207947,45.9284973
		c14.5316772,0.5735474,29.9429016-18.3178101,36.5761108-44.8924866l0.0672913-0.2621155
		c0.5391235-2.0411377,1.0180054-4.1198425,1.4241333-6.1777954l6.5627747-33.2626343l25.9686279,21.7971497
		c10.0785217,8.4595337,24.4349365,15.6576843,40.424408,20.2689209
		c17.2234802,4.9664917,34.7435303,6.3796692,48.0725098,3.8760986c10.3140869-1.9374695,14.3822632-5.5361633,14.6968384-6.6281128
		c0.3153076-1.0915833-1.2120972-6.3041687-8.9110718-13.436615c-9.9478455-9.2158203-25.530426-17.3494568-42.7531128-22.3163147
		h-0.0007629c-2.2097778-0.6373596-4.4688416-1.2281189-6.7138062-1.7563171l-68.3305054-16.0681152l-1.3936157,2.7062378
		l-18.7493591-29.3020325c-2.698822-4.2176514-5.6715088-7.6970215-8.8351135-10.3414612l-12.5793762-10.5112305
		l-13.3556213,9.6911926c-3.9046326,2.8330078-7.6019287,6.7724915-10.9901123,11.7092285l-7.3186646,10.6646118
		l-4.1785278,14.8102722c-0.1095581,0.3892822-0.2183228,0.7789612-0.3239441,1.1717834l-5.5502319,20.5807495l1.7715454,22.0820007
		C322.5697021,443.8253479,323.0986633,446.0092773,323.2144775,446.4525757z M277.916687,398.4011841l-33.2638245,5.1585693
		c-2.2880096,0.3548889-4.5916748,0.7711487-6.8452606,1.2367554c-17.5560303,3.6260681-33.719223,10.5354919-44.3478394,18.9578552
		c-8.2247925,6.5181885-10.148941,11.5973511-9.9188995,12.7100525c0.2300568,1.1130981,4.008728,5.0142212,14.1435852,7.740448
		c13.0942535,3.5216064,30.6721954,3.4625244,48.2274475-0.1627808
		c17.3416443-3.5818481,33.3843384-10.3981628,44.0137329-18.7008057l14.6889648-11.4741211l-8.391449-5.1237488
		c-0.2324219-0.1420288-0.4703064-0.2817078-0.7128601-0.4186401L277.916687,398.4011841z M506.1091309,324.5384521
		c-12.4666748,0-27.28479,3.1127625-41.6247559,8.8276978c-26.332489,10.4932556-41.3547974,25.240509-46.2187805,34.6801147
		l-13.9291992,27.0363464l66.1645813-21.3166809c2.9671936-0.9562073,5.9344177-2.0239258,8.8186951-3.1730347
		c16.6514587-6.6355286,31.3592224-16.2621765,40.353241-26.4111328c6.9610596-7.8546448,7.9681396-13.1920471,7.5479126-14.2472534
		c-0.4209595-1.0555725-4.8225098-4.2368164-15.2781982-5.1511536
		C510.0677795,324.6194153,508.1177979,324.5384521,506.1091309,324.5384521z M212.2239685,313.1989441
		c-0.2050171,0-0.4092407,0.0007629-0.6126862,0.0031128c-10.494812,0.1060181-15.1295319,2.9394531-15.6295471,3.9594116
		c-0.5007935,1.0195923,0.0923462,6.4184265,6.4274139,14.785614c8.1856689,10.8113403,22.1093597,21.5420837,38.1997833,29.4401855
		c2.7160339,1.3333435,5.5956116,2.6244812,8.561264,3.8381348l31.5446777,12.9091797l18.1523132-6.2106628
		c0.2809143-0.0962524,0.5555725-0.1975708,0.825531-0.3039856l4.1925964-1.655365l-1.5837708-4.7567749
		c-3.4836731-10.4658813-18.7493286-27.3825989-44.0340576-39.7941284
		C242.4180603,317.6340942,225.6813049,313.1989441,212.2239685,313.1989441z M352.2606506,274.2858887l-1.818512,0.9084778
		c-7.692688,3.8400879-14.0387268,13.3665771-19.4011536,29.1232605
		c-3.6753845,10.7987976,11.3618164,18.381958,14.4135437,19.7923889l17.2156372,7.9571838l17.7438354-6.8123779
		c4.3678894-1.6768799,18.4441528-8.0448303,16.2242432-19.5897522
		c-1.6769104-8.7232361-6.5354004-24.2725525-20.2329712-30.4006653l-1.9812622-0.8865662l-2.2496643-0.6052551
		c-2.3772278-0.6400757-4.9164124-1.0160828-7.5447998-1.1174011c-3.881958-0.1521912-7.3734436,0.2073669-10.3735352,1.0622253
		L352.2606506,274.2858887z"/>
	<path d="M357.2858276,536c-0.7371216,0-1.475769-0.0144653-2.2160339-0.0430298
		c-17.9527588-0.6921387-35.0189514-9.8903198-48.0545044-25.8993835
		c-8.2208862-10.0957336-14.6490784-22.4118042-19.1155396-36.6207275
		c-10.5050049,4.5991211-21.8448792,8.17276-33.7223663,10.625885c-23.9443207,4.9437866-47.7775116,4.8037415-67.1082458-0.3955383
		c-32.7106018-8.7991638-41.3250732-28.1721497-43.5489197-38.9369202
		c-2.2238464-10.7643738-1.9898834-31.9644775,24.5593567-53.0037842
		c6.5095673-5.1578064,14.0919342-9.8445435,22.5538177-13.9416809
		c-8.2224426-6.6738892-15.2179413-13.7914734-20.8041687-21.1703796
		c-20.4473419-27.0066223-15.3752136-47.5924683-10.5315857-57.4593201
		c4.8444214-9.8676453,18.0286713-26.4729614,51.899704-26.8160706c0.3372498-0.0035095,0.6760712-0.0050964,1.016449-0.0050964
		c19.7704926,0,42.5207214,5.822937,64.0596466,16.3963928c4.9970093,2.4523315,9.8742981,5.1276855,14.5152588,7.9606934
		c0.4194336-1.854126,0.9444885-3.7129211,1.5665588-5.5400391c4.2223511-12.4068604,11.511261-30.3353577,26.0985413-43.2308502
		c-0.5133362-1.9515381-1.0829773-3.8471222-1.698822-5.647644c-7.3061218-1.0332794-14.0817566-4.5842438-19.1272583-10.034317
		c-5.8609009-6.330368-8.9055786-14.5645599-8.5722351-23.184906c0.6885986-17.8299103,15.5356445-31.7348175,33.516571-31.0274506
		c15.0614319,0.5810089,27.8810425,11.7362366,30.5438538,26.550415
		c4.3358154,6.7486115,7.9845886,14.6518097,10.8641663,23.5237274c3.5493774-8.6121368,7.7912903-16.2031097,12.6247559-22.5929565
		c1.5368042-5.9614258,4.7606812-11.3426361,9.3288879-15.571228c6.3311462-5.8612823,14.5684814-8.9055634,23.1853027-8.5722198
		c8.6191711,0.3321686,16.5943298,4.0016632,22.4544373,10.332428c5.8608704,6.3303833,8.9055786,14.5641785,8.5722351,23.1845245
		c-0.6338196,16.4264984-13.8532715,29.9421234-30.1964417,30.9859772c-0.3004761,0.7003326-0.594696,1.4155273-0.8787537,2.1362
		c13.924469,11.708847,23.7510376,29.4202118,27.6987305,49.9466095c0.1791687,0.9335022,0.3356934,1.8756104,0.467926,2.8126526
		c3.9367371-1.9194641,8.0080261-3.719574,12.1192627-5.3573303c22.712677-9.0511169,46.2039185-13.0735168,66.1457825-11.3309021
		c33.7458496,2.9507751,45.6107788,20.5220642,49.6797485,30.7332153
		c4.0697632,10.2107849,7.541687,31.1260681-14.925293,56.4776917
		c-6.1386719,6.9273987-13.6607666,13.4851074-22.3722534,19.5052185c8.12146,4.7364502,15.3204346,9.9932251,21.4136963,15.6373596
		c24.848877,23.0205688,23.4497681,44.1756897,20.4042969,54.73703
		c-3.0454102,10.5621033-13.1262817,29.214386-46.4182739,35.4680786
		c-19.672699,3.6965027-43.4464417,2.0016479-66.940033-4.7739868
		c-10.5292358-3.0364685-20.6281128-6.9931335-30.0313416-11.7651978
		C411.9852905,514.6035156,385.5988159,535.9996338,357.2858276,536z M288.8989868,471.2415771l0.2652588,0.8642578
		c4.4148254,14.3736572,10.8391113,26.802002,19.0936279,36.9399719
		c12.7413635,15.646759,29.3881531,24.6356506,46.8729553,25.3101501c0.7199097,0.0274048,1.4382324,0.0415039,2.1549988,0.0415039
		c27.8677368-0.0004272,53.8754883-21.3495483,67.8750916-55.7159119l0.3302002-0.8106689l0.7778015,0.4006348
		c9.5307922,4.9023132,19.7986755,8.9552307,30.5196228,12.046875c23.2557068,6.7063599,46.7657471,8.3895264,66.1997986,4.7388
		c32.4476318-6.0948486,42.2304077-24.1293945,45.1741333-34.3366394s4.2653809-30.6811829-19.9536133-53.118042
		c-6.2779541-5.8158875-13.7554321-11.2189941-22.2243652-16.0591125l-1.1150513-0.6373291l1.0626221-0.7214661
		c9.0487671-6.1410217,16.8291016-12.8575439,23.1257935-19.9625854
		c21.8965454-24.7088318,18.5686035-44.9535217,14.6358032-54.8219299
		c-3.9328003-9.8688049-15.440979-26.8536377-48.3307495-29.730072c-19.7000732-1.723053-42.9276123,2.26297-65.4133606,11.2229004
		c-4.421875,1.7621765-8.7975769,3.7129517-13.0050659,5.7990723l-1.0156555,0.5031433l-0.1361694-1.1248169
		c-0.1525879-1.2653198-0.3536987-2.5497742-0.5978088-3.818573c-3.9187317-20.3792725-13.7171326-37.9180908-27.5907593-49.3851624
		l-0.4452209-0.3677673l0.2081299-0.5383606c0.4154968-1.0790558,0.8560486-2.1514587,1.309906-3.1874847l0.1995239-0.4554138
		l0.4960938-0.0238647c15.7492676-0.7574615,28.563385-13.7046051,29.1721802-29.4749908
		c0.3161011-8.1923065-2.5767517-16.0176392-8.1465454-22.0342407s-13.1490479-9.5037842-21.3409729-9.8199005
		c-8.1958313-0.3161316-16.0184326,2.5767517-22.0342407,8.1473236c-4.3811951,4.0548859-7.4602966,9.2232513-8.9047852,14.9464111
		l-0.039917,0.1584625l-0.0993652,0.1302795c-5.1722717,6.8080902-9.6614685,15.0246735-13.3446655,24.4216309l-0.8395996,2.1436462
		l-0.6721802-2.2019348c-2.9515381-9.6641998-6.8006287-18.2102051-11.440033-25.4017181l-0.0884399-0.1365356l-0.0281677-0.1600189
		c-2.4703369-14.1549225-14.6897583-24.8308868-29.0555725-25.3848877c-0.4013977-0.016037-0.8004761-0.0234833-1.197998-0.0234833
		c-16.5513,0-30.016449,12.9627991-30.6557617,29.5113678c-0.3161316,8.1927185,2.5767517,16.0180511,8.1465454,22.0346527
		c4.9750977,5.3733826,11.4228516,8.6927185,18.6468201,9.5988464l0.492981,0.0618134l0.1643372,0.4687195
		c0.7425842,2.1256409,1.4233398,4.3858795,2.0227356,6.7180939l0.1228638,0.4792786l-0.3732605,0.3247375
		c-14.54422,12.6634827-21.8088989,30.5293884-26.0077515,42.8661804c-0.7238159,2.1295776-1.3138123,4.302948-1.7527771,6.4595032
		l-0.2292786,1.1275635l-0.9773254-0.6060181c-4.8843384-3.0263062-10.0472412-5.8792725-15.3447266-8.4798889
		c-21.3237305-10.4674377-43.8235626-16.2320557-63.3538361-16.2320557c-0.3341217,0-0.6682434,0.0015564-1.0000153,0.0050659
		c-33.0126495,0.3345337-45.7962494,16.3830872-50.4779053,25.9197388
		c-4.6808777,9.5358582-9.5581665,29.4640198,10.3703918,55.7859497
		c5.7301941,7.5678711,12.9706116,14.8634644,21.5209198,21.6844788l1.003952,0.8008728l-1.1612244,0.5497131
		c-8.8163605,4.1737976-16.6874695,8.9853516-23.3950043,14.3000488
		c-25.8755188,20.5056458-26.1345215,41.0202942-23.9850006,51.4239502
		c2.1487274,10.403656,10.5143585,29.1373291,42.3955231,37.7130737
		c19.0944061,5.1366882,42.6646881,5.2689209,66.3679962,0.3736572
		c12.0754395-2.4942017,23.5890808-6.1562805,34.2192383-10.8840942L288.8989868,471.2415771z M357.2858276,495.9363098
		c-0.2245789,0-0.4491577-0.004303-0.6729431-0.0133057c-14.5097961-0.5594788-28.5892029-20.1507874-33.4774475-46.5834351
		l-0.2699585-1.4644165l-0.4264526-1.2199097l-0.0093994-0.0379639l-0.0054626,0.0019531l-0.0500793-0.1404419l0.0187683-0.0066528
		c-0.1917114-0.7868042-0.6533813-2.9766235-0.9671631-6.8824463l-1.7825012-22.220459l5.5862122-20.7149658
		c0.1064148-0.3955688,0.2159729-0.7879944,0.3262939-1.1803894l4.2145081-14.9378357l7.3937988-10.7733765
		c3.4398499-5.0126343,7.2012939-9.0178223,11.1802673-11.9044495l13.860321-10.0578003l13.0590515,10.911499
		c3.2261963,2.6972656,6.2528992,6.2384338,8.9963074,10.5245361l17.9989319,28.1298828l15.2946472-29.6870422
		c4.9273376-9.5632629,20.0975647-24.4830627,46.6342773-35.0576782
		c14.3759766-5.7290344,29.2637024-8.8844604,41.9213257-8.8844604c2.0352783,0,4.0212402,0.0833435,5.9031372,0.2480774
		c10.7240601,0.9378052,15.3791504,4.2133179,15.9526978,5.6523438c0.5736084,1.440155-0.5524292,7.0193481-7.692688,15.075531
		c-9.074585,10.2400818-23.8926697,19.9441833-40.6560364,26.6243591c-2.9022827,1.1561279-5.8867188,2.2297058-8.8695679,3.1910095
		l-65.7999268,21.1993103l67.2944946,15.8243713c2.2614136,0.5321045,4.5337524,1.1264038,6.7529297,1.7664795
		c17.3392639,5.0005493,33.0400085,13.2006836,43.0762634,22.4986572c7.8984985,7.3175049,9.565979,12.7581787,9.1364136,14.2464905
		c-0.428833,1.4882812-4.7379761,5.2055359-15.3189087,7.1934509c-13.4471436,2.5247192-31.1033325,1.1060791-48.4425964-3.8936768
		c-16.0951233-4.6417542-30.5556335-11.8954773-40.7171021-20.4250488l-24.9302368-20.9254456l-6.2998657,31.9320068
		c-0.4107971,2.0794678-0.8936157,4.1745911-1.4358826,6.227478l-0.0657349,0.2566528
		C387.3711548,476.9729614,372.0170593,495.9363098,357.2858276,495.9363098z M323.9813232,446.2185974l0.4483643,1.3040161
		l0.2817078,1.5258789c4.7536316,25.7017822,18.196106,44.742218,31.9640808,45.2731323
		c14.1662903,0.5673218,29.222229-18.065033,35.7670288-44.285614l0.0688477-0.2672424
		c0.5352173-2.0258789,1.0101929-4.087738,1.4139709-6.1335754l6.8256836-34.5932617l27.007019,22.6688538
		c9.9947815,8.3890991,24.2471313,15.5317078,40.1317444,20.1128235
		c17.1069031,4.9332275,34.4931335,6.3389893,47.7023926,3.8584595c10.4415894-1.9613037,13.8783569-5.4970093,14.0755005-6.0658875
		c0.1338501-0.5802002-0.8920288-5.40271-8.6864624-12.6235657c-9.8586121-9.1332703-25.323822-17.2008057-42.4307251-22.1340332
		c-2.1956787-0.6330261-4.4414368-1.2206726-6.676239-1.7461243l-67.7209473-15.9249268l-1.7441711,3.3870239
		l-19.4997559-30.4742432c-2.6542053-4.1483765-5.5729065-7.5663147-8.6739197-10.1587219l-12.0997314-10.1105957
		l-12.8508911,9.324585c-3.8295288,2.7786255-7.4634094,6.6523743-10.7999878,11.5140076l-7.2435303,10.5558472
		l-4.1425171,14.6831055c-0.1087646,0.3857727-0.2167664,0.7723389-0.3216248,1.162384l-5.5142212,20.4469604l1.7606201,21.9434814
		C323.3561096,443.6035156,323.8631592,445.7557678,323.9813232,446.2185974z M506.1091309,325.3397217
		c-12.4588623,0-27.1361084,3.1147156-41.328186,8.7705688c-26.1259155,10.4111023-41.0019226,24.9854431-45.8032837,34.3029785
		l-13.0402832,25.3117371l64.3178711-20.7216187c2.9492493-0.9503479,5.899231-2.0118103,8.7678528-3.1550293
		c16.5380249-6.5901489,31.1362305-16.1389465,40.0503845-26.1979065
		c7.0455933-7.9508972,7.5941162-12.8520508,7.4016113-13.4232788c-0.2503662-0.5391541-4.0180664-3.7199707-14.6021118-4.6456604
		C510.037262,325.4210815,508.0982361,325.3397217,506.1091309,325.3397217z M219.7445221,447.6044006
		c-8.1543732,0-15.7570801-0.8744507-22.268219-2.6256714c-10.3954315-2.7966309-14.4064941-6.8346863-14.7202759-8.3519287
		c-0.3137817-1.5172729,1.7684326-6.8135681,10.2060699-13.5003662
		c10.7232971-8.4971313,27.0093384-15.4640503,44.6835327-19.1147766c2.2684479-0.4683228,4.5846405-0.8869629,6.8843842-1.2437744
		l33.5384674-5.2012329l17.8353882,10.0601196c0.2511902,0.1416321,0.4968872,0.2860107,0.7371216,0.4331055l9.3789673,5.7263184
		l-15.6013794,12.186554c-10.7232971,8.3761902-26.8864746,15.2480774-44.3447113,18.854187
		C237.1111908,446.6775208,228.1359863,447.6044006,219.7445221,447.6044006z M277.7648926,399.2357178l-32.9891815,5.1159363
		c-2.2739258,0.3525085-4.5634918,0.7660522-6.8061218,1.2296753
		c-17.4371033,3.6014404-33.4790039,10.4541321-44.0121613,18.8009949
		c-8.3265228,6.5987549-9.7209167,11.3281555-9.6309357,11.923645c0.1518097,0.5751343,3.3060303,4.3651428,13.5661011,7.125
		c12.9784393,3.4906921,30.4217987,3.4281006,47.8573303-0.1737061
		c17.2250519-3.5576172,33.1464386-10.3179626,43.682724-18.5474548l13.7765808-10.7616577l-7.4039612-4.5208435
		c-0.2245789-0.1373291-0.4546204-0.2723083-0.6885986-0.4049377L277.7648926,399.2357178z M280.6898499,378.9902344
		l-31.8232574-13.0234375c-2.9797363-1.2191162-5.8773041-2.5180664-8.6105652-3.8604431
		c-16.1999664-7.9512939-30.2269592-18.7677002-38.4853973-29.6756897
		c-6.4993896-8.5831604-7.1911163-14.2319946-6.5079956-15.622467c0.6815491-1.3905029,5.5729218-4.298645,16.3408203-4.4074097
		l0.6205139-0.0031433c13.5645294,0,30.4757843,4.4821472,46.3964233,12.2969055
		c25.4920654,12.5128479,40.907196,29.6412659,44.4417419,40.2601013l1.8232117,5.4766846l-4.898407,1.9339294
		c-0.2817078,0.1107178-0.5673218,0.2163391-0.8599854,0.3164978L280.6898499,378.9902344z M212.2239685,314.0002136
		l-0.603302,0.0031128c-10.6254883,0.1072083-14.6271667,2.988739-14.9213715,3.5141907
		c-0.2324066,0.5481262-0.0641785,5.4758911,6.3483734,13.9459839
		c8.1128845,10.7146912,21.9317322,21.3593445,37.9141693,29.2046509c2.7019501,1.3259277,5.565094,2.6099854,8.5119781,3.8158264
		l31.2661133,12.7953491l17.8682556-6.1136475c0.2683716-0.0919189,0.532074-0.1889648,0.7903137-0.2910767l3.4867859-1.3768005
		l-1.3443298-4.0368958c-3.4320068-10.3124695-18.5482178-27.0179443-43.6263733-39.328125
		C242.2060089,318.4224548,225.5521851,314.0002136,212.2239685,314.0002136z M362.6412048,332.936554l-17.5231628-8.0992126
		c-3.1604919-1.460907-18.7321167-9.3288879-14.8352966-20.7779541
		c5.4336243-15.9667664,11.9111328-25.6430969,19.8017883-29.5817871l1.9562378-0.9624634l1.9953613-0.5684814
		c3.0892944-0.8795166,6.6676331-1.2453308,10.6246948-1.09198c2.6886597,0.103302,5.2865295,0.488678,7.7216492,1.1440125
		l2.3686218,0.6479187l1.9812622,0.8865662c14.0293274,6.2763672,18.9864502,22.1042786,20.6930542,30.9804993
		c2.3373108,12.1568298-12.210022,18.7559814-16.7242432,20.4891968L362.6412048,332.936554z M352.5517273,275.0359192
		l-1.7512207,0.8752136c-7.4947205,3.7411194-13.7100525,13.1173401-19.0012817,28.6647034
		c-3.453949,10.1489563,11.0487976,17.4468994,13.9917603,18.8068542l16.9081421,7.815155l17.4277039-6.6911011
		c4.2199707-1.6201477,17.8267822-7.7564697,15.7242126-18.6902466c-1.6471558-8.570282-6.407074-23.8406372-19.7728271-29.8208618
		l-1.9233704-0.8603516l-2.1886597-0.5888062c-2.3193054-0.6248474-4.7982483-0.9914246-7.367157-1.0908203
		c-3.795105-0.150238-7.1981812,0.1983643-10.1231384,1.0325012L352.5517273,275.0359192z"/>
	
		<ellipse transform="matrix(0.4406332 -0.8976873 0.8976873 0.4406332 -168.7389069 416.0042725)" style="fill:#D3D2D2;" cx="249.4381104" cy="343.4005432" rx="40.0687332" ry="79.580864"/>
	<path style="fill:#BFBDBE;" d="M249.9634552,463.6600037c43.0426483-8.8901062,74.3073883-33.6656494,69.831131-55.3379211
		c-4.4760742-21.671875-42.9980469-32.0332642-86.0408783-23.143158
		c-43.0426483,8.8901672-74.3073883,33.6656494-69.831131,55.3374939
		C168.3986359,462.1882629,206.9206085,472.5501099,249.9634552,463.6600037z"/>
	<path style="fill:#D3D2D2;" d="M486.7355652,389.201355c-40.8287659,16.2703857-80.5683289,12.7955627-88.7606506-7.7616272
		c-8.1921082-20.5567322,18.2653809-50.4117737,59.0939636-66.6826172
		c40.828949-16.2704468,80.5683289-12.7955627,88.7604065,7.7616272
		C554.0216064,343.0759277,527.5645142,372.9309082,486.7355652,389.201355z"/>
	
		<ellipse transform="matrix(0.2770886 -0.9608444 0.9608444 0.2770886 -74.2772064 767.9580078)" style="fill:#BFBDBE;" cx="473.2200317" cy="433.341095" rx="40.0689278" ry="79.5808716"/>
	<path d="M302.0887146,422.2866211c-1.9304199,50.0610657,22.148468,91.6325073,53.7825623,92.8528442
		c31.6336975,1.2195435,58.8427734-38.3744202,60.7735596-88.4355469
		c1.9304199-50.0610657-22.1488647-91.6324768-53.7825623-92.852417
		C331.2285767,332.6315918,304.0189209,372.2250366,302.0887146,422.2866211z"/>
	<path style="fill:#727172;" d="M312.07724,297.8636169c-9.2807617,27.2684021,20.8522949,49.3133545,49.6353455,50.4232788
		c28.7830811,1.1103516,60.0360718-18.1177673,54.5973511-46.4041443
		c-5.1147766-26.6009827-22.1260071-48.1342926-50.9090576-49.2445984
		C336.6178284,251.5282288,321.7721558,269.3774719,312.07724,297.8636169z"/>
	<path style="fill:#F7C232;" d="M304.2675476,452.9527893c53.6616821,24.2978516,107.8423462,4.1585999,107.8423462,4.1585999
		c9.0477905-31.9039307,2.3590393-61.1705627,2.3590393-61.1705627s-54.180481,20.1392822-107.8423462-4.1586304
		c0,0-3.7211609,9.3262024-4.6122131,32.4276733C301.2091675,445.0862732,304.2675476,452.9527893,304.2675476,452.9527893z"/>
	<path d="M399.9342957,221.8449097c1.9573975,1.8935852,4.5621338,3.1318817,7.4976501,3.2453003
		c6.3262634,0.2437439,11.6523132-4.6869507,11.8960571-11.0127258c0.2443542-6.3263092-4.686554-11.6527557-11.0128174-11.8964996
		c-6.3262634-0.2442322-11.6520996,4.6865082-11.8958435,11.0127258c-0.0133057,0.3372955,0.045166,0.6575317,0.0608215,0.9884338
		c-5.0361328,5.3530884-15.8971558,19.9004822-21.091156,49.9570465l7.4873047,1.2968445
		C387.0698853,241.1799011,395.1344604,227.9141846,399.9342957,221.8449097z"/>
	<path d="M349.8265076,263.1538391c-2.8633423-30.3713684-12.5735168-45.7129059-17.1810303-51.4358215
		c0.0412903-0.3277588,0.1236267-0.6418915,0.1369324-0.9782104c0.2437439-6.3262634-4.6869202-11.6522675-11.0132141-11.8964539
		c-6.3262634-0.2437439-11.6523132,4.6869507-11.8960571,11.0132141
		c-0.2441406,6.3262634,4.686554,11.6522675,11.0128174,11.8960114c2.9365234,0.1133575,5.6296692-0.9214935,7.7271423-2.6598511
		c4.3178101,6.4210052,11.3365784,20.2679749,13.6464844,44.772171L349.8265076,263.1538391z"/>
	<path d="M365.0812378,298.6602783c-0.2437439,6.3257751,4.6869202,11.6522827,11.0132141,11.8960266
		c6.3258667,0.2442322,11.6523132-4.6864929,11.8960571-11.0127869c0.2443237-6.3262634-4.686554-11.6522522-11.0128174-11.8964844
		C370.6513977,287.4032898,365.3255615,292.3340149,365.0812378,298.6602783z"/>
	<path d="M334.5357971,297.4821472c-0.2441406,6.3262634,4.686554,11.6523132,11.0128174,11.8965149
		c6.3262634,0.2437439,11.6523132-4.6870117,11.8964539-11.0132751c0.243927-6.3257751-4.6869507-11.6522522-11.0132141-11.8959961
		C340.1061707,286.2251282,334.779541,291.1558838,334.5357971,297.4821472z"/>
	<path style="fill:#FFFFFF;" d="M375.0142212,300.1655579c2.0473938-0.5113525,3.2931213-2.5856018,2.7817383-4.6331482
		c-0.5111389-2.0470886-2.5855408-3.2927856-4.6329346-2.7814636c-2.0472107,0.5113525-3.2929382,2.5856018-2.7815857,4.6326599
		C370.8928223,299.4311523,372.9670105,300.6763916,375.0142212,300.1655579z"/>
	<path style="fill:#FFFFFF;" d="M341.9231262,298.8892517c2.0475769-0.5108643,3.2929382-2.5851135,2.7815552-4.6326294
		c-0.5109558-2.0476074-2.585144-3.2928467-4.6327515-2.7819214c-2.0475769,0.5113525-3.2927246,2.5855408-2.7813721,4.6330872
		C337.8015442,298.1553955,339.8757324,299.4006348,341.9231262,298.8892517z"/>
	<path d="M346.9487,328.1294861l3.6468201-6.6670837c0.7370911,0.3984985,18.2741394,9.59729,36.9489441-3.3099365
		l4.3182068,6.253479C369.2372437,340.0441589,347.8491516,328.6235962,346.9487,328.1294861z"/>
</g>
</svg>
